<svg width="116" height="29" viewBox="0 0 116 29" fill="none" xmlns="http://www.w3.org/2000/svg">
<path d="M20.1795 1L1 19C12.5774 9.4 28.4906 15 35 19L20.1795 1Z" stroke="#D4CCB6" stroke-linejoin="round"/>
<path d="M20.1795 4L1 22C12.5774 12.4 28.4906 18 35 22L20.1795 4Z" stroke="#D4CCB6" stroke-linejoin="round"/>
<path d="M39.504 16.978C39.504 15.934 39.714 15.022 40.134 14.242C40.566 13.462 41.16 12.862 41.916 12.442C42.684 12.022 43.56 11.812 44.544 11.812C45.804 11.812 46.854 12.142 47.694 12.802C48.546 13.462 49.104 14.392 49.368 15.592H46.092C45.816 14.824 45.282 14.44 44.49 14.44C43.926 14.44 43.476 14.662 43.14 15.106C42.804 15.538 42.636 16.162 42.636 16.978C42.636 17.794 42.804 18.424 43.14 18.868C43.476 19.3 43.926 19.516 44.49 19.516C45.282 19.516 45.816 19.132 46.092 18.364H49.368C49.104 19.54 48.546 20.464 47.694 21.136C46.842 21.808 45.792 22.144 44.544 22.144C43.56 22.144 42.684 21.934 41.916 21.514C41.16 21.094 40.566 20.494 40.134 19.714C39.714 18.934 39.504 18.022 39.504 16.978ZM50.4024 16.96C50.4024 15.928 50.5944 15.022 50.9784 14.242C51.3744 13.462 51.9084 12.862 52.5804 12.442C53.2524 12.022 54.0024 11.812 54.8304 11.812C55.5384 11.812 56.1564 11.956 56.6844 12.244C57.2244 12.532 57.6384 12.91 57.9264 13.378V11.956H61.0044V22H57.9264V20.578C57.6264 21.046 57.2064 21.424 56.6664 21.712C56.1384 22 55.5204 22.144 54.8124 22.144C53.9964 22.144 53.2524 21.934 52.5804 21.514C51.9084 21.082 51.3744 20.476 50.9784 19.696C50.5944 18.904 50.4024 17.992 50.4024 16.96ZM57.9264 16.978C57.9264 16.21 57.7104 15.604 57.2784 15.16C56.8584 14.716 56.3424 14.494 55.7304 14.494C55.1184 14.494 54.5964 14.716 54.1644 15.16C53.7444 15.592 53.5344 16.192 53.5344 16.96C53.5344 17.728 53.7444 18.34 54.1644 18.796C54.5964 19.24 55.1184 19.462 55.7304 19.462C56.3424 19.462 56.8584 19.24 57.2784 18.796C57.7104 18.352 57.9264 17.746 57.9264 16.978ZM76.0472 11.848C77.2952 11.848 78.2852 12.226 79.0172 12.982C79.7612 13.738 80.1332 14.788 80.1332 16.132V22H77.0732V16.546C77.0732 15.898 76.8992 15.4 76.5512 15.052C76.2152 14.692 75.7472 14.512 75.1472 14.512C74.5472 14.512 74.0732 14.692 73.7252 15.052C73.3892 15.4 73.2212 15.898 73.2212 16.546V22H70.1612V16.546C70.1612 15.898 69.9872 15.4 69.6392 15.052C69.3032 14.692 68.8352 14.512 68.2352 14.512C67.6352 14.512 67.1612 14.692 66.8132 15.052C66.4772 15.4 66.3092 15.898 66.3092 16.546V22H63.2312V11.956H66.3092V13.216C66.6212 12.796 67.0292 12.466 67.5332 12.226C68.0372 11.974 68.6072 11.848 69.2432 11.848C69.9992 11.848 70.6712 12.01 71.2592 12.334C71.8592 12.658 72.3272 13.12 72.6632 13.72C73.0112 13.168 73.4852 12.718 74.0852 12.37C74.6852 12.022 75.3392 11.848 76.0472 11.848ZM85.3639 13.378C85.6639 12.91 86.0779 12.532 86.6059 12.244C87.1339 11.956 87.7519 11.812 88.4599 11.812C89.2879 11.812 90.0379 12.022 90.7099 12.442C91.3819 12.862 91.9099 13.462 92.2939 14.242C92.6899 15.022 92.8879 15.928 92.8879 16.96C92.8879 17.992 92.6899 18.904 92.2939 19.696C91.9099 20.476 91.3819 21.082 90.7099 21.514C90.0379 21.934 89.2879 22.144 88.4599 22.144C87.7639 22.144 87.1459 22 86.6059 21.712C86.0779 21.424 85.6639 21.052 85.3639 20.596V26.788H82.2859V11.956H85.3639V13.378ZM89.7559 16.96C89.7559 16.192 89.5399 15.592 89.1079 15.16C88.6879 14.716 88.1659 14.494 87.5419 14.494C86.9299 14.494 86.4079 14.716 85.9759 15.16C85.5559 15.604 85.3459 16.21 85.3459 16.978C85.3459 17.746 85.5559 18.352 85.9759 18.796C86.4079 19.24 86.9299 19.462 87.5419 19.462C88.1539 19.462 88.6759 19.24 89.1079 18.796C89.5399 18.34 89.7559 17.728 89.7559 16.96ZM95.9427 22.144C95.4027 22.144 94.9587 21.988 94.6107 21.676C94.2747 21.352 94.1067 20.956 94.1067 20.488C94.1067 20.008 94.2747 19.606 94.6107 19.282C94.9587 18.958 95.4027 18.796 95.9427 18.796C96.4707 18.796 96.9027 18.958 97.2387 19.282C97.5867 19.606 97.7607 20.008 97.7607 20.488C97.7607 20.956 97.5867 21.352 97.2387 21.676C96.9027 21.988 96.4707 22.144 95.9427 22.144ZM101.131 10.912C100.591 10.912 100.147 10.756 99.7988 10.444C99.4628 10.12 99.2948 9.724 99.2948 9.256C99.2948 8.776 99.4628 8.38 99.7988 8.068C100.147 7.744 100.591 7.582 101.131 7.582C101.659 7.582 102.091 7.744 102.427 8.068C102.775 8.38 102.949 8.776 102.949 9.256C102.949 9.724 102.775 10.12 102.427 10.444C102.091 10.756 101.659 10.912 101.131 10.912ZM102.661 11.956V22H99.5828V11.956H102.661ZM111.011 11.848C112.187 11.848 113.123 12.232 113.819 13C114.527 13.756 114.881 14.8 114.881 16.132V22H111.821V16.546C111.821 15.874 111.647 15.352 111.299 14.98C110.951 14.608 110.483 14.422 109.895 14.422C109.307 14.422 108.839 14.608 108.491 14.98C108.143 15.352 107.969 15.874 107.969 16.546V22H104.891V11.956H107.969V13.288C108.281 12.844 108.701 12.496 109.229 12.244C109.757 11.98 110.351 11.848 111.011 11.848Z" fill="#D5CCB6"/>
</svg>
