<svg width="24" height="24" viewBox="0 0 24 24" fill="none" xmlns="http://www.w3.org/2000/svg">
<path d="M15.8385 12.6645L15.8342 12.6627C15.7708 12.636 15.7098 12.605 15.6458 12.5796C16.3601 12.0198 16.9378 11.3049 17.3353 10.4891C17.7327 9.67318 17.9395 8.77764 17.94 7.87012C17.9377 7.65925 17.9227 7.44871 17.8953 7.23963C17.9106 7.19987 17.9233 7.15913 17.9331 7.11768L18.2144 4.72022C18.3019 3.96272 18.0983 3.20027 17.6447 2.5873C17.1911 1.97434 16.5215 1.55669 15.7715 1.41895L14.9815 1.27539C12.9706 0.908205 10.9099 0.908205 8.899 1.27539L8.108 1.41895C7.35809 1.55679 6.68859 1.97449 6.2351 2.58744C5.78161 3.20039 5.57802 3.96278 5.66557 4.72022L5.94682 7.11768C5.95667 7.15915 5.96931 7.19991 5.98466 7.23968C5.95721 7.44874 5.94229 7.65927 5.93998 7.87012C5.94047 8.77763 6.14725 9.67317 6.54469 10.489C6.94212 11.3049 7.51982 12.0197 8.23411 12.5795C8.17011 12.6049 8.10911 12.6359 8.04575 12.6627L8.04148 12.6645C6.40427 13.3526 4.98111 14.4664 3.91976 15.8903C2.85842 17.3141 2.19759 18.9962 2.0059 20.7617C1.97715 21.0254 2.05431 21.2897 2.22042 21.4964C2.38653 21.7032 2.62797 21.8355 2.89164 21.8643C3.1553 21.893 3.41958 21.8158 3.62635 21.6497C3.83311 21.4836 3.96543 21.2422 3.99418 20.9785C4.13488 19.6807 4.59309 18.4375 5.3283 17.3588C6.06351 16.2801 7.0531 15.399 8.20963 14.7935L11.233 17.8169C11.3258 17.9098 11.436 17.9835 11.5573 18.0337C11.6787 18.084 11.8087 18.1099 11.94 18.1099C12.0713 18.1099 12.2014 18.084 12.3227 18.0337C12.444 17.9835 12.5542 17.9098 12.647 17.8169L15.6703 14.7935C16.8269 15.399 17.8164 16.2801 18.5517 17.3588C19.2869 18.4375 19.7451 19.6807 19.8858 20.9785C19.9124 21.2233 20.0285 21.4496 20.2117 21.6141C20.3948 21.7787 20.6322 21.8698 20.8785 21.8701C20.9152 21.8701 20.9518 21.8682 20.9883 21.8643C21.252 21.8355 21.4934 21.7032 21.6595 21.4964C21.8256 21.2897 21.9028 21.0254 21.8741 20.7617C21.6824 18.9962 21.0215 17.3142 19.9602 15.8903C18.8989 14.4664 17.4757 13.3526 15.8385 12.6645ZM7.65189 4.48682C7.62276 4.23441 7.69063 3.98036 7.84177 3.77611C7.9929 3.57186 8.21599 3.43267 8.46589 3.38672L9.25642 3.24317C11.0308 2.91895 12.8492 2.91895 14.6236 3.24317L15.4136 3.38672C15.6636 3.43256 15.8868 3.57171 16.038 3.77597C16.1892 3.98023 16.2572 4.23434 16.2281 4.48682L16.0503 6.00098H7.82963L7.65189 4.48682ZM11.94 15.6958L10.2897 14.0455C11.3775 13.8117 12.5025 13.8117 13.5902 14.0455L11.94 15.6958ZM11.94 11.8701C10.9021 11.8689 9.90526 11.4648 9.15947 10.7431C8.41367 10.0213 7.97718 9.03823 7.94198 8.00098H15.9381C15.9029 9.03825 15.4664 10.0214 14.7205 10.7431C13.9747 11.4649 12.9778 11.8689 11.94 11.8701Z" fill="#084236"/>
</svg>
